# xmcd
#
# Track frame offsets: 
#        150
#        14187
#        34687
#        53467
#        69371
#        93655
#        124647
#        148304
#        168750
#        190561
#        224235
#        240061
#
# Disc length: 3850 seconds
#
# Revision: 0
# Processed by: cddbd v1.5.2PL0 Copyright (c) Steve Scherf et al.
# Submitted via: ExactAudioCopy v1.3
#
DISCID=a30f080c
DTITLE=Finis Tasby - What My Blues Are All About
DYEAR=2005
DGENRE=Blues
TTITLE0=Let's Have A Ball
TTITLE1=Back In Love Again
TTITLE2=Blues From Down Under
TTITLE3=It's So Sad
TTITLE4=Baby Please
TTITLE5=Mean Old World
TTITLE6=Sitting In My Window
TTITLE7=I Don't Want No Woman
TTITLE8=Save A Place For Me
TTITLE9=Dead End Street
TTITLE10=America
TTITLE11=Ugly Woman Blues
EXTD=
EXTT0=
EXTT1=
EXTT2=
EXTT3=
EXTT4=
EXTT5=
EXTT6=
EXTT7=
EXTT8=
EXTT9=
EXTT10=
EXTT11=
PLAYORDER=
